<svg width="800" height="800" xmlns="http://www.w3.org/2000/svg">

 <g>
  <title>background</title>
  <rect fill="none" id="canvas_background" height="402" width="582" y="-1" x="-1"/>
 </g>
 <g>
  <title>Layer 1</title>
  <g id="svg_1" fill="none" stroke-width="2">
   <path id="svg_2" d="m373.46,228.86a7.91,7.91 0 0 0 -7.91,-7.91a7.91,7.91 0 0 0 -7.91,7.91a7.91,7.91 0 0 0 7.91,7.91a7.91,7.91 0 0 0 7.91,-7.91" stroke="#eb8bd0"/>
   <path id="svg_3" d="m442.17,228.88a7.85,7.85 0 0 0 -7.85,-7.85a7.85,7.85 0 0 0 -7.85,7.85a7.85,7.85 0 0 0 7.85,7.85a7.85,7.85 0 0 0 7.85,-7.85" stroke="#eb8bd0"/>
   <path id="svg_4" d="m331.38,221.38q-10.12,0.6 -8.45,10.64c0.49,2.94 3.96,4.87 5.22,7.4q2.56,5.16 -0.26,10.27q-0.8,1.45 -3.07,2.93q-3.61,2.37 -5.89,5.97q-2.29,3.63 -1.86,7.82c1.47,14.19 19.31,18.02 26.43,5.8q4.15,-7.11 -0.74,-14.96c-2.3,-3.68 -7.08,-5.03 -9.02,-8.83c-2.22,-4.37 0.1,-8.7 3.07,-12.19q1.84,-2.18 2.28,-3.4c1.75,-4.81 -2.4,-11.77 -7.71,-11.45" stroke="#eb8bd0"/>
   <path id="svg_5" d="m463.16,236.42c2.71,3.38 6.52,10.94 1.35,14.34c-7.35,4.84 -12.73,11.46 -8.69,20.55c4.46,10.06 18.97,11.16 24.72,1.49q2.17,-3.64 2.5,-5.3c1.19,-6 -3.38,-12.03 -8.19,-14.87c-2.97,-1.76 -3.38,-2.65 -3.86,-5.88q-1.03,-6.93 3.32,-10.98c3.2,-2.98 3.81,-6.21 1.61,-10.07c-1.52,-2.65 -1.94,-3.31 -4.92,-3.92q-6.96,-1.42 -9.65,4.04c-1.87,3.82 -0.8,7.34 1.81,10.6" stroke="#eb8bd0"/>
   <path id="svg_6" d="m361.7,262.87c1.89,2.79 2.52,11.74 -1.01,13.38c-8.38,3.88 -11.6,13.07 -7.36,21.07q2.79,5.26 9.14,6.2q12.83,1.9 16.4,-9.31c1.97,-6.2 -0.19,-12.23 -5.38,-16.01c-2.64,-1.92 -4.91,-2.48 -5.72,-6.23q-1.35,-6.22 2.16,-10.12q2.87,-3.18 3.06,-3.53q3.06,-5.52 -1.94,-10.25c-6.87,-6.51 -16.44,1.24 -13.27,9.69c0.71,1.89 2.73,3.35 3.92,5.11" stroke="#eb8bd0"/>
   <path id="svg_7" d="m431.38,264.23c2.83,4.33 1.44,9.62 -2.81,12.31c-6.69,4.23 -10.04,10.24 -7.39,18.23q2.58,7.78 11.05,8.72q8.98,0.99 13.3,-4.93c3.93,-5.38 3.71,-13.67 -1,-18.58q-1.26,-1.32 -6.59,-4.71q-0.41,-0.27 -0.55,-0.74q-2.64,-9.01 3.37,-15.67q3.72,-4.13 0.98,-8.36q-5.21,-8.06 -12.18,-2.97c-3.09,2.25 -4.49,5.32 -3.41,9.01c0.78,2.67 3.54,5.11 5.23,7.69" stroke="#eb8bd0"/>
   <path id="svg_8" d="m407.2927,253.6729a5.7,5.7 0 0 0 -5.69,-5.7099l-3.4,-0.006a5.7,5.7 0 0 0 -5.7099,5.6901l-0.0055,3.14a5.7,5.7 0 0 0 5.69,5.7099l3.4,0.006a5.7,5.7 0 0 0 5.7099,-5.6901l0.0055,-3.14" stroke="#eb8bd0"/>
   <path id="svg_9" d="m403.02,331.55q1.14,-1.63 2.54,-2.29q11.39,-5.39 8.39,-17.47q-1.42,-5.7 -7.06,-8.76c-5.69,-3.09 -6.62,-7.5 -3.71,-13.17c0.97,-1.88 2.64,-3.32 4.17,-4.86q0.35,-0.36 0.45,-0.86c0.76,-3.98 -0.09,-10.42 -4.93,-11.5q-4.45,-0.99 -8.6,1.15a1.44,1.39 -89.5 0 0 -0.62,0.63c-1.55,3.13 -2.74,7.16 -0.77,10.44c2.69,4.48 7.51,9.76 4.04,15.07q-0.84,1.29 -3.84,3.01c-7.16,4.13 -9.96,13.16 -5.72,20.6c4.04,7.09 14.57,5.42 9.3,17.5c-2.07,4.74 -6.08,5.12 -4.62,11.72q0.5,2.24 0.96,3.38c1.75,4.23 8.47,4.09 11.67,2.2c3.33,-1.96 3.5,-7.08 3.35,-10.49a1.36,1.34 -68.5 0 0 -0.38,-0.89c-3.73,-3.95 -8.38,-10.08 -4.62,-15.41" stroke="#eb8bd0"/>
   <path id="svg_10" d="m361.53,368.21q-1.14,1.97 -3.22,4.59c-3.6,4.55 -1.06,10.09 3.61,12.35q4.37,2.12 9.04,-1.37c6.56,-4.91 2.29,-10.18 -1.35,-14.67c-1.59,-1.97 -4.01,-10.75 -0.56,-12.59c8.05,-4.3 12.76,-10.09 9.65,-19.46q-2.38,-7.17 -9.66,-8.84c-12.07,-2.78 -20.2,7.35 -16.66,18.72c1.68,5.41 6.46,7.61 10.26,9.98a0.97,0.97 0 0 1 0.45,0.89c-0.26,3.54 0.16,7.42 -1.56,10.4" stroke="#d782e0"/>
   <path id="svg_11" d="m438.33,368.93c-1.54,-3.01 -1.18,-5.86 -1.59,-9.33c-0.22,-1.86 0.3,-2.66 2,-3.6c4.36,-2.4 8.01,-5.44 9.22,-10.48c2.61,-10.95 -5.98,-19.59 -16.92,-17.41c-10.35,2.06 -14.56,16.53 -6.94,23.83q2.5,2.4 5.93,3.81a1.78,1.72 -5.2 0 1 0.77,0.62q2.32,3.47 1.87,7.57q-0.23,2.11 -2.12,4.47c-3.26,4.05 -7.91,9.7 -3.06,14.02c1.72,1.54 4.25,3.22 6.56,4.01q0.45,0.16 0.9,-0.02q5.27,-2.17 7.39,-5.4c3.36,-5.1 -2.15,-8.48 -4.01,-12.09" stroke="#d782e0"/>
   <path id="svg_12" d="m322.08,355.15c-9.08,8.89 -5.78,19.57 4.86,25.11a1.47,1.43 2.9 0 1 0.65,0.7q4.14,9.37 -3.48,15.91q-1.3,1.12 -1.51,3.65q-0.59,7.02 5.46,9.1q5.12,1.76 8.7,-1.67c9.75,-9.33 -7.43,-15.01 -3,-25.17q0.57,-1.3 2.42,-2.65c6.51,-4.76 11.44,-9.54 8.27,-18.6q-3.08,-8.81 -12.93,-9.63q-5.63,-0.47 -9.44,3.25" stroke="#d782e0"/>
   <path id="svg_13" d="m472.66,393.35c-1.74,-3.61 -2.21,-8.61 -0.79,-12.35a1.26,1.26 0 0 1 0.67,-0.7c5.93,-2.61 12.49,-9.66 10.33,-16.68c-1.6,-5.22 -4.95,-9.75 -10.53,-11.14q-10.4,-2.61 -15.56,6.31c-3.14,5.42 -3.32,11.01 0.54,16c3.95,5.1 13.57,8.05 7.97,16.71c-1.95,3.01 -4.74,6.08 -4.9,9.23c-0.37,7.19 4.2,10.67 11.1,8.99c5.09,-1.24 6.48,-5.96 5.62,-10.65c-0.28,-1.54 -3.55,-3.87 -4.45,-5.72" stroke="#d782e0"/>
   <path id="svg_14" d="m407.4536,374.6863a5.99,5.99 0 0 0 -5.7665,-6.2055l-3.038,-0.1114a5.99,5.99 0 0 0 -6.2054,5.7665l-0.1173,3.1978a5.99,5.99 0 0 0 5.7665,6.2055l3.038,0.1114a5.99,5.99 0 0 0 6.2054,-5.7665l0.1173,-3.1978" stroke="#d782e0"/>
   <path id="svg_15" d="m373.54,402.73a8.07,8.07 0 0 0 -8.07,-8.07a8.07,8.07 0 0 0 -8.07,8.07a8.07,8.07 0 0 0 8.07,8.07a8.07,8.07 0 0 0 8.07,-8.07" stroke="#d782e0"/>
   <path id="svg_16" d="m442.39,402.76a8.04,8.04 0 0 0 -8.04,-8.04a8.04,8.04 0 0 0 -8.04,8.04a8.04,8.04 0 0 0 8.04,8.04a8.04,8.04 0 0 0 8.04,-8.04" stroke="#d782e0"/>
   <path id="svg_17" d="m457.6082,463.6796a8.1,7.22 1.2 0 0 -7.947,-7.388a8.1,7.22 1.2 0 0 -8.2494,7.0488a8.1,7.22 1.2 0 0 7.947,7.388a8.1,7.22 1.2 0 0 8.2494,-7.0488" stroke="#8490a4"/>
   <path id="svg_18" d="m182.94,479.51l0.17,-20.96q0,-0.56 -0.56,-0.58l-11.9,-0.46a1.08,1.08 0 0 0 -1.13,1.09l0.11,63.11a2.01,1.99 2 0 0 1.87,1.99q3.15,0.22 6.72,-0.45q2.37,-0.44 2.72,-1.34q1.09,-2.82 3.39,-0.85c8.13,6.99 16.88,4.51 23.05,-3.24c8.11,-10.19 9.13,-30.98 -3.16,-38.82q-7.19,-4.59 -16.66,-0.55q-1.89,0.8 -3.85,1.59q-0.77,0.3 -0.77,-0.53" stroke="#8490a4"/>
   <path id="svg_19" d="m345.45,516.58c-1.4,-2.97 -4.17,-3.03 -4.17,-7.14q-0.02,-25.5 -0.27,-50.97q0,-0.6 -0.61,-0.61l-13,-0.32q-0.72,-0.02 -0.73,0.7q-0.31,25.63 0.11,51.26c0.07,4.11 1.58,11.48 5.2,13.47c4,2.2 9.83,3.89 14.14,0.48q0.37,-0.3 0.41,-0.77q0.26,-3.23 -1.08,-6.1" stroke="#8490a4"/>
   <path id="svg_20" d="m248.95,511.64c-3.66,2.54 -10.35,1.06 -13.99,-0.75q-0.09,-0.04 -3.05,-2.26c-4.59,-3.45 -8.64,3.09 -10.27,6.34a2.58,2.58 0 0 0 0.83,3.28c10.61,7.41 25.8,10.31 36.73,1.71q9.39,-7.4 5.54,-19.96c-2.15,-7.03 -10.45,-10.64 -16.82,-13c-4.13,-1.53 -9.47,-3.13 -11.24,-7.34q-0.2,-0.48 -0.04,-0.97c3.07,-8.83 15.41,-4.31 20.51,-0.37a0.54,0.54 0 0 0 0.82,-0.2q1.74,-3.52 4.75,-6.22a2.43,2.43 0 0 0 -0.22,-3.8c-10.34,-7.28 -23.19,-9.49 -33.51,-1.11c-3.7,3.01 -5.27,7.04 -6.42,11.56q-0.52,2.04 0.76,5.94c2.91,8.82 6.59,9.79 15.53,13.91c3.68,1.69 19.6,6.66 10.09,13.24" stroke="#8490a4"/>
   <path id="svg_21" d="m668.52,462.74c-16.37,-4.94 -32.05,6.45 -35.3,22.53q-1.87,9.21 0.72,20.29c1.01,4.29 5.79,11.87 9.55,14.26c10.97,6.99 22.9,7.5 33.52,-0.3c2.51,-1.83 2.83,-3 1.38,-5.75c-1.35,-2.57 -3.05,-7.02 -6.42,-5.02c-2.25,1.34 -4.59,3.19 -6.95,3.85c-7.02,1.96 -13.97,-2.55 -16.72,-8.87q-1.47,-3.37 -1.54,-9.14c-0.14,-11.01 3.75,-21.98 16.87,-20.65c3.1,0.31 5.51,2.13 7.94,3.95q0.41,0.31 0.83,0.02q2.68,-1.9 3.98,-4.97a1.63,1.58 -3.2 0 1 0.73,-0.79c2.71,-1.42 1.88,-3.69 -0.34,-5.08q-5.62,-3.54 -8.25,-4.33" stroke="#8490a4"/>
   <path id="svg_22" d="m60.97,510.4c0.14,-6.35 -1.84,-13.94 -2.43,-18.33q-1.93,-14.41 -3.79,-28.91q-0.05,-0.44 -0.5,-0.45l-12.45,-0.33a1.37,1.36 85.5 0 0 -1.37,1.61l10.68,58.61a1.23,1.23 0 0 0 1.16,1.02q7.43,0.36 14.31,0.2q2.36,-0.06 2.7,-2.06q3.14,-18.89 7.63,-37.57a0.67,0.67 0 0 1 0.97,-0.43q0.29,0.16 0.36,0.77q1.98,19.52 7.32,38.56q0.17,0.61 0.8,0.61l15.83,0.02a1.29,1.29 0 0 0 1.29,-1.26c0.1,-4.6 1.55,-9.25 2.06,-13.15c0.93,-6.99 2.83,-14.6 3.78,-20.77q0.78,-5 1.55,-10.01c0.63,-4.13 2.69,-9.96 2.59,-15.49q-0.01,-0.54 -0.55,-0.54q-5.21,0.02 -10.41,0.14q-1.85,0.04 -2.18,1.86q-3.78,20.23 -5.45,40.75q-0.17,2 -1.03,5.56q-0.05,0.22 -0.24,0.09l-0.23,-0.16a0.19,0.17 23.8 0 1 -0.08,-0.18q0.45,-3.22 -0.81,-7.78q-3.22,-11.62 -6.67,-30.21c-0.62,-3.36 -1.75,-6.28 -2.88,-9.44a0.81,0.8 80.4 0 0 -0.74,-0.53l-8.64,-0.14a1.4,1.39 -67.3 0 0 -1.02,0.42q-2.03,2.1 -2.51,4.64c-1.63,8.68 -3.83,16.91 -5.06,24.87q-1.58,10.3 -3.17,17.61q-0.07,0.33 -0.5,0.59q-0.32,0.19 -0.32,-0.19" stroke="#8490a4"/>
   <path id="svg_23" d="m422.84,476.89l0.19,-11.49q0,-0.39 -0.38,-0.4l-10.14,-0.36a1.98,1.97 2.5 0 0 -2.04,1.86l-0.62,10.34a0.81,0.81 0 0 1 -0.93,0.75q-2.78,-0.43 -5.33,0.68a0.78,0.77 81.3 0 0 -0.45,0.62l-0.69,6.22a2.28,2.28 0 0 0 1.9,2.5l3.64,0.6a1.23,1.23 0 0 1 1.04,1.27q-0.38,9.2 -0.33,18.28q0.03,6.83 3.79,12.13c5.05,7.11 16.17,6.31 23.14,2.75a0.7,0.69 63.3 0 0 0.3,-0.93l-3.46,-6.95q-0.26,-0.5 -0.82,-0.6c-2.4,-0.4 -8.61,-0.28 -8.62,-3.68q-0.01,-10.87 -0.33,-20.4q-0.07,-2.1 2.02,-2.23l8.96,-0.53a0.73,0.73 0 0 0 0.69,-0.79l-0.57,-7.77q-0.04,-0.51 -0.55,-0.55l-9.87,-0.73q-0.55,-0.04 -0.54,-0.59" stroke="#8490a4"/>
   <path id="svg_24" d="m308.77,481.41c-14.25,-11.07 -34.44,-2.77 -36.03,15.29q-1.98,22.63 18.29,28.14c3.56,0.96 6.31,0.54 9.71,-0.59q14.5,-4.77 16.52,-19.66q2.04,-15.01 -8.49,-23.18" stroke="#8490a4"/>
   <path id="svg_25" d="m528.59,478.14q-3.62,-1.1 -7.32,-0.38q-0.56,0.11 -0.55,0.68l0.23,44.57q0,0.45 0.45,0.5q6.27,0.62 12.51,-0.18q0.5,-0.06 0.47,-0.56q-0.65,-13 -0.46,-26.01c0.03,-2.12 -0.32,-3.55 1.38,-5.19c6.79,-6.54 12.97,-4.06 13.28,5.44q0.43,13.08 0.11,26.14a0.66,0.66 0 0 0 0.68,0.68l12.21,-0.37q0.54,-0.01 0.53,-0.55q-0.33,-14.84 -0.13,-29.69q0.08,-5.77 -1.18,-8.75c-4.24,-10.05 -18.09,-10.91 -25.07,-2.9a1.59,1.58 50 0 1 -2.56,-0.23l-2.34,-3.89a0.94,0.94 0 0 0 -1.64,0.05l-0.26,0.5q-0.11,0.21 -0.34,0.14" stroke="#8490a4"/>
   <path id="svg_26" d="m157.74,518.8c-0.66,-1.65 -0.97,-4.11 -2.25,-5.17c-2.58,-2.13 -10.5,0.58 -13.75,0.47q-7.83,-0.25 -9.51,-8.8a0.48,0.47 -4.9 0 1 0.48,-0.56l26.25,0.51q0.48,0.01 0.53,-0.47q0.64,-6.64 -0.01,-11.79c-1.52,-12.03 -11.27,-18.08 -22.75,-16.23c-9.25,1.5 -15.76,8.56 -17.85,17.6q-2.05,8.92 1.72,17.94q3.04,7.26 11.44,10.63c10.12,4.07 17.38,1.95 26.21,-3.15q0.21,-0.12 0.04,-0.29l-0.28,-0.28q-0.18,-0.18 -0.27,-0.41" stroke="#8490a4"/>
   <path id="svg_27" d="m487.3832,525.1185a24.52,22.93 92.4 0 0 23.9367,-23.5383a24.52,22.93 92.4 0 0 -21.8831,-25.4587a24.52,22.93 92.4 0 0 -23.9367,23.5383a24.52,22.93 92.4 0 0 21.8831,25.4587" stroke="#8490a4"/>
   <path id="svg_28" d="m593.58,509.6q1.58,1.65 -0.47,3.51c-3.3,2.97 -9.48,1.66 -12.64,-0.61c-5.01,-3.6 -8.35,1.3 -9.95,5.36a1.65,1.64 26.3 0 0 0.69,2.02c8.56,5.09 18.96,7.27 28.18,2.54q2.73,-1.4 4.74,-4.5q7,-10.8 -2.93,-18.14c-4.2,-3.1 -13.77,-4.73 -16,-9.53q-1.01,-2.19 1.55,-2.84q6.65,-1.68 12,2.39q0.42,0.32 0.9,0.12q5.58,-2.35 5.7,-8.56q0.01,-0.49 -0.41,-0.73c-7.67,-4.42 -18.87,-6.18 -26.73,-1.26c-6.56,4.11 -7.51,11.13 -4.26,17.82q1.95,4.01 4.77,5.07q7.14,2.7 14.48,7.05a1.82,1.78 -7 0 1 0.38,0.29" stroke="#8490a4"/>
   <path id="svg_29" d="m708.2673,525.13a24.47,22.85 90.1 0 0 22.8927,-24.4301a24.47,22.85 90.1 0 0 -22.8073,-24.5099a24.47,22.85 90.1 0 0 -22.8927,24.4301a24.47,22.85 90.1 0 0 22.8073,24.5099" stroke="#8490a4"/>
   <path id="svg_30" d="m382.45,518.98q-0.11,1.73 0.2,3.34a1.59,1.58 84.8 0 0 1.53,1.28l10.45,0.1a0.92,0.91 86.2 0 0 0.91,-1.05q-0.83,-5.55 -0.81,-11.4q0.06,-16.36 0.02,-32.76q0,-0.55 -0.55,-0.57l-12.37,-0.48a1.05,1.05 0 0 0 -1.09,1.05q0.04,13.99 0.01,28.51c-0.01,5.13 -6.61,7.21 -10.45,5.38c-3.11,-1.48 -3.31,-4.26 -3.3,-7.38q0.06,-13.23 0.03,-26.5q0,-0.61 -0.6,-0.63l-12.82,-0.43q-0.6,-0.02 -0.63,0.58q-0.9,17.38 0.88,34.68c0.36,3.53 2.56,6.5 4.23,9.55q0.25,0.46 0.71,0.7q9.92,5.19 18.93,-1.48q1.97,-1.45 2.76,-2.99q2.28,-4.4 1.96,0.5" stroke="#8490a4"/>
   <path id="svg_31" d="m457.18,479.04a1.27,1.27 0 0 0 -1.27,-1.27l-12.12,0a1.27,1.27 0 0 0 -1.27,1.27l0,43.38a1.27,1.27 0 0 0 1.27,1.27l12.12,0a1.27,1.27 0 0 0 1.27,-1.27l0,-43.38" stroke="#8490a4"/>
   <path id="svg_32" d="m748.1937,525.0286a8.59,8.13 85.1 0 0 7.3666,-9.253a8.59,8.13 85.1 0 0 -8.834,-7.8642a8.59,8.13 85.1 0 0 -7.3666,9.253a8.59,8.13 85.1 0 0 8.834,7.8642" stroke="#8490a4"/>
   <path id="svg_33" d="m182.97,499.04q-0.19,5.68 0.41,11.31q0.06,0.51 0.44,0.86q5.12,4.69 10.9,0.76q2.86,-1.95 3.38,-5.11c0.99,-6.06 1.9,-23.85 -10.63,-18.3c-4.68,2.07 -4.32,5.31 -4.5,10.48" stroke="#8490a4"/>
   <path id="svg_34" d="m297.32,513.13c6.97,-3.43 6.54,-12.28 4.92,-18.63c-0.71,-2.83 -1.42,-5.25 -4.37,-6.31c-4.51,-1.62 -9.47,0.66 -10.29,5.81c-1.07,6.75 -2.1,16.02 5.01,19.32c1.55,0.72 3.27,0.54 4.73,-0.19" stroke="#8490a4"/>
   <path id="svg_35" d="m133.34,496.1l13.72,0.1a1.3,1.3 0 0 0 1.31,-1.29l0,-0.12a7.94,7.74 0.4 0 0 -7.89,-7.8l-0.44,0a7.94,7.74 0.4 0 0 -7.99,7.68l0,0.12a1.3,1.3 0 0 0 1.29,1.31" stroke="#8490a4"/>
   <path id="svg_36" d="m488.4887,513.8998a13.13,8.56 89.7 0 0 8.4912,-13.1746a13.13,8.56 89.7 0 0 -8.6286,-13.085a13.13,8.56 89.7 0 0 -8.4912,13.1746a13.13,8.56 89.7 0 0 8.6286,13.085" stroke="#8490a4"/>
   <path id="svg_37" d="m708.6332,513.8287a13.12,8.75 89.2 0 0 8.5659,-13.2409a13.12,8.75 89.2 0 0 -8.9323,-12.9965a13.12,8.75 89.2 0 0 -8.5659,13.2409a13.12,8.75 89.2 0 0 8.9323,12.9965" stroke="#8490a4"/>
  </g>
  <path id="svg_38" d="m0,0l800,0l0,800l-800,0l0,-800zm373.46,228.86a7.91,7.91 0 0 0 -7.91,-7.91a7.91,7.91 0 0 0 -7.91,7.91a7.91,7.91 0 0 0 7.91,7.91a7.91,7.91 0 0 0 7.91,-7.91zm68.71,0.02a7.85,7.85 0 0 0 -7.85,-7.85a7.85,7.85 0 0 0 -7.85,7.85a7.85,7.85 0 0 0 7.85,7.85a7.85,7.85 0 0 0 7.85,-7.85zm-110.79,-7.5q-10.12,0.6 -8.45,10.64c0.49,2.94 3.96,4.87 5.22,7.4q2.56,5.16 -0.26,10.27q-0.8,1.45 -3.07,2.93q-3.61,2.37 -5.89,5.97q-2.29,3.63 -1.86,7.82c1.47,14.19 19.31,18.02 26.43,5.8q4.15,-7.11 -0.74,-14.96c-2.3,-3.68 -7.08,-5.03 -9.02,-8.83c-2.22,-4.37 0.1,-8.7 3.07,-12.19q1.84,-2.18 2.28,-3.4c1.75,-4.81 -2.4,-11.77 -7.71,-11.45zm131.78,15.04c2.71,3.38 6.52,10.94 1.35,14.34c-7.35,4.84 -12.73,11.46 -8.69,20.55c4.46,10.06 18.97,11.16 24.72,1.49q2.17,-3.64 2.5,-5.3c1.19,-6 -3.38,-12.03 -8.19,-14.87c-2.97,-1.76 -3.38,-2.65 -3.86,-5.88q-1.03,-6.93 3.32,-10.98c3.2,-2.98 3.81,-6.21 1.61,-10.07c-1.52,-2.65 -1.94,-3.31 -4.92,-3.92q-6.96,-1.42 -9.65,4.04c-1.87,3.82 -0.8,7.34 1.81,10.6zm-101.46,26.45c1.89,2.79 2.52,11.74 -1.01,13.38c-8.38,3.88 -11.6,13.07 -7.36,21.07q2.79,5.26 9.14,6.2q12.83,1.9 16.4,-9.31c1.97,-6.2 -0.19,-12.23 -5.38,-16.01c-2.64,-1.92 -4.91,-2.48 -5.72,-6.23q-1.35,-6.22 2.16,-10.12q2.87,-3.18 3.06,-3.53q3.06,-5.52 -1.94,-10.25c-6.87,-6.51 -16.44,1.24 -13.27,9.69c0.71,1.89 2.73,3.35 3.92,5.11zm69.68,1.36c2.83,4.33 1.44,9.62 -2.81,12.31c-6.69,4.23 -10.04,10.24 -7.39,18.23q2.58,7.78 11.05,8.72q8.98,0.99 13.3,-4.93c3.93,-5.38 3.71,-13.67 -1,-18.58q-1.26,-1.32 -6.59,-4.71q-0.41,-0.27 -0.55,-0.74q-2.64,-9.01 3.37,-15.67q3.72,-4.13 0.98,-8.36q-5.21,-8.06 -12.18,-2.97c-3.09,2.25 -4.49,5.32 -3.41,9.01c0.78,2.67 3.54,5.11 5.23,7.69zm-24.0873,-10.5571a5.7,5.7 0 0 0 -5.69,-5.7099l-3.4,-0.006a5.7,5.7 0 0 0 -5.7099,5.6901l-0.0055,3.14a5.7,5.7 0 0 0 5.69,5.7099l3.4,0.006a5.7,5.7 0 0 0 5.7099,-5.6901l0.0055,-3.14zm-4.2727,77.8771q1.14,-1.63 2.54,-2.29q11.39,-5.39 8.39,-17.47q-1.42,-5.7 -7.06,-8.76c-5.69,-3.09 -6.62,-7.5 -3.71,-13.17c0.97,-1.88 2.64,-3.32 4.17,-4.86q0.35,-0.36 0.45,-0.86c0.76,-3.98 -0.09,-10.42 -4.93,-11.5q-4.45,-0.99 -8.6,1.15a1.44,1.39 -89.5 0 0 -0.62,0.63c-1.55,3.13 -2.74,7.16 -0.77,10.44c2.69,4.48 7.51,9.76 4.04,15.07q-0.84,1.29 -3.84,3.01c-7.16,4.13 -9.96,13.16 -5.72,20.6c4.04,7.09 14.57,5.42 9.3,17.5c-2.07,4.74 -6.08,5.12 -4.62,11.72q0.5,2.24 0.96,3.38c1.75,4.23 8.47,4.09 11.67,2.2c3.33,-1.96 3.5,-7.08 3.35,-10.49a1.36,1.34 -68.5 0 0 -0.38,-0.89c-3.73,-3.95 -8.38,-10.08 -4.62,-15.41zm-41.49,36.66q-1.14,1.97 -3.22,4.59c-3.6,4.55 -1.06,10.09 3.61,12.35q4.37,2.12 9.04,-1.37c6.56,-4.91 2.29,-10.18 -1.35,-14.67c-1.59,-1.97 -4.01,-10.75 -0.56,-12.59c8.05,-4.3 12.76,-10.09 9.65,-19.46q-2.38,-7.17 -9.66,-8.84c-12.07,-2.78 -20.2,7.35 -16.66,18.72c1.68,5.41 6.46,7.61 10.26,9.98a0.97,0.97 0 0 1 0.45,0.89c-0.26,3.54 0.16,7.42 -1.56,10.4zm76.8,0.72c-1.54,-3.01 -1.18,-5.86 -1.59,-9.33c-0.22,-1.86 0.3,-2.66 2,-3.6c4.36,-2.4 8.01,-5.44 9.22,-10.48c2.61,-10.95 -5.98,-19.59 -16.92,-17.41c-10.35,2.06 -14.56,16.53 -6.94,23.83q2.5,2.4 5.93,3.81a1.78,1.72 -5.2 0 1 0.77,0.62q2.32,3.47 1.87,7.57q-0.23,2.11 -2.12,4.47c-3.26,4.05 -7.91,9.7 -3.06,14.02c1.72,1.54 4.25,3.22 6.56,4.01q0.45,0.16 0.9,-0.02q5.27,-2.17 7.39,-5.4c3.36,-5.1 -2.15,-8.48 -4.01,-12.09zm-116.25,-13.78c-9.08,8.89 -5.78,19.57 4.86,25.11a1.47,1.43 2.9 0 1 0.65,0.7q4.14,9.37 -3.48,15.91q-1.3,1.12 -1.51,3.65q-0.59,7.02 5.46,9.1q5.12,1.76 8.7,-1.67c9.75,-9.33 -7.43,-15.01 -3,-25.17q0.57,-1.3 2.42,-2.65c6.51,-4.76 11.44,-9.54 8.27,-18.6q-3.08,-8.81 -12.93,-9.63q-5.63,-0.47 -9.44,3.25zm150.58,38.2c-1.74,-3.61 -2.21,-8.61 -0.79,-12.35a1.26,1.26 0 0 1 0.67,-0.7c5.93,-2.61 12.49,-9.66 10.33,-16.68c-1.6,-5.22 -4.95,-9.75 -10.53,-11.14q-10.4,-2.61 -15.56,6.31c-3.14,5.42 -3.32,11.01 0.54,16c3.95,5.1 13.57,8.05 7.97,16.71c-1.95,3.01 -4.74,6.08 -4.9,9.23c-0.37,7.19 4.2,10.67 11.1,8.99c5.09,-1.24 6.48,-5.96 5.62,-10.65c-0.28,-1.54 -3.55,-3.87 -4.45,-5.72zm-65.2064,-18.6637a5.99,5.99 0 0 0 -5.7665,-6.2055l-3.038,-0.1114a5.99,5.99 0 0 0 -6.2054,5.7665l-0.1173,3.1978a5.99,5.99 0 0 0 5.7665,6.2055l3.038,0.1114a5.99,5.99 0 0 0 6.2054,-5.7665l0.1173,-3.1978zm-33.9136,28.0437a8.07,8.07 0 0 0 -8.07,-8.07a8.07,8.07 0 0 0 -8.07,8.07a8.07,8.07 0 0 0 8.07,8.07a8.07,8.07 0 0 0 8.07,-8.07zm68.85,0.03a8.04,8.04 0 0 0 -8.04,-8.04a8.04,8.04 0 0 0 -8.04,8.04a8.04,8.04 0 0 0 8.04,8.04a8.04,8.04 0 0 0 8.04,-8.04zm15.2182,60.9196a8.1,7.22 1.2 0 0 -7.947,-7.388a8.1,7.22 1.2 0 0 -8.2494,7.0488a8.1,7.22 1.2 0 0 7.947,7.388a8.1,7.22 1.2 0 0 8.2494,-7.0488zm-274.6682,15.8304l0.17,-20.96q0,-0.56 -0.56,-0.58l-11.9,-0.46a1.08,1.08 0 0 0 -1.13,1.09l0.11,63.11a2.01,1.99 2 0 0 1.87,1.99q3.15,0.22 6.72,-0.45q2.37,-0.44 2.72,-1.34q1.09,-2.82 3.39,-0.85c8.13,6.99 16.88,4.51 23.05,-3.24c8.11,-10.19 9.13,-30.98 -3.16,-38.82q-7.19,-4.59 -16.66,-0.55q-1.89,0.8 -3.85,1.59q-0.77,0.3 -0.77,-0.53zm162.51,37.07c-1.4,-2.97 -4.17,-3.03 -4.17,-7.14q-0.02,-25.5 -0.27,-50.97q0,-0.6 -0.61,-0.61l-13,-0.32q-0.72,-0.02 -0.73,0.7q-0.31,25.63 0.11,51.26c0.07,4.11 1.58,11.48 5.2,13.47c4,2.2 9.83,3.89 14.14,0.48q0.37,-0.3 0.41,-0.77q0.26,-3.23 -1.08,-6.1zm-96.5,-4.94c-3.66,2.54 -10.35,1.06 -13.99,-0.75q-0.09,-0.04 -3.05,-2.26c-4.59,-3.45 -8.64,3.09 -10.27,6.34a2.58,2.58 0 0 0 0.83,3.28c10.61,7.41 25.8,10.31 36.73,1.71q9.39,-7.4 5.54,-19.96c-2.15,-7.03 -10.45,-10.64 -16.82,-13c-4.13,-1.53 -9.47,-3.13 -11.24,-7.34q-0.2,-0.48 -0.04,-0.97c3.07,-8.83 15.41,-4.31 20.51,-0.37a0.54,0.54 0 0 0 0.82,-0.2q1.74,-3.52 4.75,-6.22a2.43,2.43 0 0 0 -0.22,-3.8c-10.34,-7.28 -23.19,-9.49 -33.51,-1.11c-3.7,3.01 -5.27,7.04 -6.42,11.56q-0.52,2.04 0.76,5.94c2.91,8.82 6.59,9.79 15.53,13.91c3.68,1.69 19.6,6.66 10.09,13.24zm419.57,-48.9c-16.37,-4.94 -32.05,6.45 -35.3,22.53q-1.87,9.21 0.72,20.29c1.01,4.29 5.79,11.87 9.55,14.26c10.97,6.99 22.9,7.5 33.52,-0.3c2.51,-1.83 2.83,-3 1.38,-5.75c-1.35,-2.57 -3.05,-7.02 -6.42,-5.02c-2.25,1.34 -4.59,3.19 -6.95,3.85c-7.02,1.96 -13.97,-2.55 -16.72,-8.87q-1.47,-3.37 -1.54,-9.14c-0.14,-11.01 3.75,-21.98 16.87,-20.65c3.1,0.31 5.51,2.13 7.94,3.95q0.41,0.31 0.83,0.02q2.68,-1.9 3.98,-4.97a1.63,1.58 -3.2 0 1 0.73,-0.79c2.71,-1.42 1.88,-3.69 -0.34,-5.08q-5.62,-3.54 -8.25,-4.33zm-607.55,47.66c0.14,-6.35 -1.84,-13.94 -2.43,-18.33q-1.93,-14.41 -3.79,-28.91q-0.05,-0.44 -0.5,-0.45l-12.45,-0.33a1.37,1.36 85.5 0 0 -1.37,1.61l10.68,58.61a1.23,1.23 0 0 0 1.16,1.02q7.43,0.36 14.31,0.2q2.36,-0.06 2.7,-2.06q3.14,-18.89 7.63,-37.57a0.67,0.67 0 0 1 0.97,-0.43q0.29,0.16 0.36,0.77q1.98,19.52 7.32,38.56q0.17,0.61 0.8,0.61l15.83,0.02a1.29,1.29 0 0 0 1.29,-1.26c0.1,-4.6 1.55,-9.25 2.06,-13.15c0.93,-6.99 2.83,-14.6 3.78,-20.77q0.78,-5 1.55,-10.01c0.63,-4.13 2.69,-9.96 2.59,-15.49q-0.01,-0.54 -0.55,-0.54q-5.21,0.02 -10.41,0.14q-1.85,0.04 -2.18,1.86q-3.78,20.23 -5.45,40.75q-0.17,2 -1.03,5.56q-0.05,0.22 -0.24,0.09l-0.23,-0.16a0.19,0.17 23.8 0 1 -0.08,-0.18q0.45,-3.22 -0.81,-7.78q-3.22,-11.62 -6.67,-30.21c-0.62,-3.36 -1.75,-6.28 -2.88,-9.44a0.81,0.8 80.4 0 0 -0.74,-0.53l-8.64,-0.14a1.4,1.39 -67.3 0 0 -1.02,0.42q-2.03,2.1 -2.51,4.64c-1.63,8.68 -3.83,16.91 -5.06,24.87q-1.58,10.3 -3.17,17.61q-0.07,0.33 -0.5,0.59q-0.32,0.19 -0.32,-0.19zm361.87,-33.51l0.19,-11.49q0,-0.39 -0.38,-0.4l-10.14,-0.36a1.98,1.97 2.5 0 0 -2.04,1.86l-0.62,10.34a0.81,0.81 0 0 1 -0.93,0.75q-2.78,-0.43 -5.33,0.68a0.78,0.77 81.3 0 0 -0.45,0.62l-0.69,6.22a2.28,2.28 0 0 0 1.9,2.5l3.64,0.6a1.23,1.23 0 0 1 1.04,1.27q-0.38,9.2 -0.33,18.28q0.03,6.83 3.79,12.13c5.05,7.11 16.17,6.31 23.14,2.75a0.7,0.69 63.3 0 0 0.3,-0.93l-3.46,-6.95q-0.26,-0.5 -0.82,-0.6c-2.4,-0.4 -8.61,-0.28 -8.62,-3.68q-0.01,-10.87 -0.33,-20.4q-0.07,-2.1 2.02,-2.23l8.96,-0.53a0.73,0.73 0 0 0 0.69,-0.79l-0.57,-7.77q-0.04,-0.51 -0.55,-0.55l-9.87,-0.73q-0.55,-0.04 -0.54,-0.59zm-114.07,4.52c-14.25,-11.07 -34.44,-2.77 -36.03,15.29q-1.98,22.63 18.29,28.14c3.56,0.96 6.31,0.54 9.71,-0.59q14.5,-4.77 16.52,-19.66q2.04,-15.01 -8.49,-23.18zm219.82,-3.27q-3.62,-1.1 -7.32,-0.38q-0.56,0.11 -0.55,0.68l0.23,44.57q0,0.45 0.45,0.5q6.27,0.62 12.51,-0.18q0.5,-0.06 0.47,-0.56q-0.65,-13 -0.46,-26.01c0.03,-2.12 -0.32,-3.55 1.38,-5.19c6.79,-6.54 12.97,-4.06 13.28,5.44q0.43,13.08 0.11,26.14a0.66,0.66 0 0 0 0.68,0.68l12.21,-0.37q0.54,-0.01 0.53,-0.55q-0.33,-14.84 -0.13,-29.69q0.08,-5.77 -1.18,-8.75c-4.24,-10.05 -18.09,-10.91 -25.07,-2.9a1.59,1.58 50 0 1 -2.56,-0.23l-2.34,-3.89a0.94,0.94 0 0 0 -1.64,0.05l-0.26,0.5q-0.11,0.21 -0.34,0.14zm-370.85,40.66c-0.66,-1.65 -0.97,-4.11 -2.25,-5.17c-2.58,-2.13 -10.5,0.58 -13.75,0.47q-7.83,-0.25 -9.51,-8.8a0.48,0.47 -4.9 0 1 0.48,-0.56l26.25,0.51q0.48,0.01 0.53,-0.47q0.64,-6.64 -0.01,-11.79c-1.52,-12.03 -11.27,-18.08 -22.75,-16.23c-9.25,1.5 -15.76,8.56 -17.85,17.6q-2.05,8.92 1.72,17.94q3.04,7.26 11.44,10.63c10.12,4.07 17.38,1.95 26.21,-3.15q0.21,-0.12 0.04,-0.29l-0.28,-0.28q-0.18,-0.18 -0.27,-0.41zm329.6432,6.3185a24.52,22.93 92.4 0 0 23.9367,-23.5383a24.52,22.93 92.4 0 0 -21.8831,-25.4587a24.52,22.93 92.4 0 0 -23.9367,23.5383a24.52,22.93 92.4 0 0 21.8831,25.4587zm106.1968,-15.5185q1.58,1.65 -0.47,3.51c-3.3,2.97 -9.48,1.66 -12.64,-0.61c-5.01,-3.6 -8.35,1.3 -9.95,5.36a1.65,1.64 26.3 0 0 0.69,2.02c8.56,5.09 18.96,7.27 28.18,2.54q2.73,-1.4 4.74,-4.5q7,-10.8 -2.93,-18.14c-4.2,-3.1 -13.77,-4.73 -16,-9.53q-1.01,-2.19 1.55,-2.84q6.65,-1.68 12,2.39q0.42,0.32 0.9,0.12q5.58,-2.35 5.7,-8.56q0.01,-0.49 -0.41,-0.73c-7.67,-4.42 -18.87,-6.18 -26.73,-1.26c-6.56,4.11 -7.51,11.13 -4.26,17.82q1.95,4.01 4.77,5.07q7.14,2.7 14.48,7.05a1.82,1.78 -7 0 1 0.38,0.29zm114.6873,15.53a24.47,22.85 90.1 0 0 22.8927,-24.4301a24.47,22.85 90.1 0 0 -22.8073,-24.5099a24.47,22.85 90.1 0 0 -22.8927,24.4301a24.47,22.85 90.1 0 0 22.8073,24.5099zm-325.8173,-6.15q-0.11,1.73 0.2,3.34a1.59,1.58 84.8 0 0 1.53,1.28l10.45,0.1a0.92,0.91 86.2 0 0 0.91,-1.05q-0.83,-5.55 -0.81,-11.4q0.06,-16.36 0.02,-32.76q0,-0.55 -0.55,-0.57l-12.37,-0.48a1.05,1.05 0 0 0 -1.09,1.05q0.04,13.99 0.01,28.51c-0.01,5.13 -6.61,7.21 -10.45,5.38c-3.11,-1.48 -3.31,-4.26 -3.3,-7.38q0.06,-13.23 0.03,-26.5q0,-0.61 -0.6,-0.63l-12.82,-0.43q-0.6,-0.02 -0.63,0.58q-0.9,17.38 0.88,34.68c0.36,3.53 2.56,6.5 4.23,9.55q0.25,0.46 0.71,0.7q9.92,5.19 18.93,-1.48q1.97,-1.45 2.76,-2.99q2.28,-4.4 1.96,0.5zm74.73,-39.94a1.27,1.27 0 0 0 -1.27,-1.27l-12.12,0a1.27,1.27 0 0 0 -1.27,1.27l0,43.38a1.27,1.27 0 0 0 1.27,1.27l12.12,0a1.27,1.27 0 0 0 1.27,-1.27l0,-43.38zm291.0137,45.9886a8.59,8.13 85.1 0 0 7.3666,-9.253a8.59,8.13 85.1 0 0 -8.834,-7.8642a8.59,8.13 85.1 0 0 -7.3666,9.253a8.59,8.13 85.1 0 0 8.834,7.8642z" fill="none"/>
  <circle id="svg_39" r="7.91" cy="228.86" cx="365.55" fill="#d717a0"/>
  <circle id="svg_40" r="7.85" cy="228.88" cx="434.32" fill="#d717a0"/>
  <path id="svg_41" d="m331.38,221.38c5.31,-0.32 9.46,6.64 7.71,11.45q-0.44,1.22 -2.28,3.4c-2.97,3.49 -5.29,7.82 -3.07,12.19c1.94,3.8 6.72,5.15 9.02,8.83q4.89,7.85 0.74,14.96c-7.12,12.22 -24.96,8.39 -26.43,-5.8q-0.43,-4.19 1.86,-7.82q2.28,-3.6 5.89,-5.97q2.27,-1.48 3.07,-2.93q2.82,-5.11 0.26,-10.27c-1.26,-2.53 -4.73,-4.46 -5.22,-7.4q-1.67,-10.04 8.45,-10.64z" fill="#d717a0"/>
  <path id="svg_42" d="m464.51,250.76c5.17,-3.4 1.36,-10.96 -1.35,-14.34c-2.61,-3.26 -3.68,-6.78 -1.81,-10.6q2.69,-5.46 9.65,-4.04c2.98,0.61 3.4,1.27 4.92,3.92c2.2,3.86 1.59,7.09 -1.61,10.07q-4.35,4.05 -3.32,10.98c0.48,3.23 0.89,4.12 3.86,5.88c4.81,2.84 9.38,8.87 8.19,14.87q-0.33,1.66 -2.5,5.3c-5.75,9.67 -20.26,8.57 -24.72,-1.49c-4.04,-9.09 1.34,-15.71 8.69,-20.55z" fill="#d717a0"/>
  <path id="svg_43" d="m360.69,276.25c3.53,-1.64 2.9,-10.59 1.01,-13.38c-1.19,-1.76 -3.21,-3.22 -3.92,-5.11c-3.17,-8.45 6.4,-16.2 13.27,-9.69q5,4.73 1.94,10.25q-0.19,0.35 -3.06,3.53q-3.51,3.9 -2.16,10.12c0.81,3.75 3.08,4.31 5.72,6.23c5.19,3.78 7.35,9.81 5.38,16.01q-3.57,11.21 -16.4,9.31q-6.35,-0.94 -9.14,-6.2c-4.24,-8 -1.02,-17.19 7.36,-21.07z" fill="#d717a0"/>
  <path id="svg_44" d="m428.57,276.54c4.25,-2.69 5.64,-7.98 2.81,-12.31c-1.69,-2.58 -4.45,-5.02 -5.23,-7.69c-1.08,-3.69 0.32,-6.76 3.41,-9.01q6.97,-5.09 12.18,2.97q2.74,4.23 -0.98,8.36q-6.01,6.66 -3.37,15.67q0.14,0.47 0.55,0.74q5.33,3.39 6.59,4.71c4.71,4.91 4.93,13.2 1,18.58q-4.32,5.92 -13.3,4.93q-8.47,-0.94 -11.05,-8.72c-2.65,-7.99 0.7,-14 7.39,-18.23z" fill="#d717a0"/>
  <rect id="svg_45" rx="5.7" height="14.54" width="14.8" transform="rotate(0.10000000149011612 399.89001464838634,255.22999572754986) " y="247.959996" x="392.490015" fill="#d717a0"/>
  <path id="svg_46" d="m403.02,331.55c-3.76,5.33 0.89,11.46 4.62,15.41a1.36,1.34 -68.5 0 1 0.38,0.89c0.15,3.41 -0.02,8.53 -3.35,10.49c-3.2,1.89 -9.92,2.03 -11.67,-2.2q-0.46,-1.14 -0.96,-3.38c-1.46,-6.6 2.55,-6.98 4.62,-11.72c5.27,-12.08 -5.26,-10.41 -9.3,-17.5c-4.24,-7.44 -1.44,-16.47 5.72,-20.6q3,-1.72 3.84,-3.01c3.47,-5.31 -1.35,-10.59 -4.04,-15.07c-1.97,-3.28 -0.78,-7.31 0.77,-10.44a1.44,1.39 -89.5 0 1 0.62,-0.63q4.15,-2.14 8.6,-1.15c4.84,1.08 5.69,7.52 4.93,11.5q-0.1,0.5 -0.45,0.86c-1.53,1.54 -3.2,2.98 -4.17,4.86c-2.91,5.67 -1.98,10.08 3.71,13.17q5.64,3.06 7.06,8.76q3,12.08 -8.39,17.47q-1.4,0.66 -2.54,2.29z" fill="#d717a0"/>
  <path id="svg_47" d="m361.53,368.21c1.72,-2.98 1.3,-6.86 1.56,-10.4a0.97,0.97 0 0 0 -0.45,-0.89c-3.8,-2.37 -8.58,-4.57 -10.26,-9.98c-3.54,-11.37 4.59,-21.5 16.66,-18.72q7.28,1.67 9.66,8.84c3.11,9.37 -1.6,15.16 -9.65,19.46c-3.45,1.84 -1.03,10.62 0.56,12.59c3.64,4.49 7.91,9.76 1.35,14.67q-4.67,3.49 -9.04,1.37c-4.67,-2.26 -7.21,-7.8 -3.61,-12.35q2.08,-2.62 3.22,-4.59z" fill="#af05c0"/>
  <path id="svg_48" d="m438.33,368.93c1.86,3.61 7.37,6.99 4.01,12.09q-2.12,3.23 -7.39,5.4q-0.45,0.18 -0.9,0.02c-2.31,-0.79 -4.84,-2.47 -6.56,-4.01c-4.85,-4.32 -0.2,-9.97 3.06,-14.02q1.89,-2.36 2.12,-4.47q0.45,-4.1 -1.87,-7.57a1.78,1.72 -5.2 0 0 -0.77,-0.62q-3.43,-1.41 -5.93,-3.81c-7.62,-7.3 -3.41,-21.77 6.94,-23.83c10.94,-2.18 19.53,6.46 16.92,17.41c-1.21,5.04 -4.86,8.08 -9.22,10.48c-1.7,0.94 -2.22,1.74 -2,3.6c0.41,3.47 0.05,6.32 1.59,9.33z" fill="#af05c0"/>
  <path id="svg_49" d="m326.94,380.26c-10.64,-5.54 -13.94,-16.22 -4.86,-25.11q3.81,-3.72 9.44,-3.25q9.85,0.82 12.93,9.63c3.17,9.06 -1.76,13.84 -8.27,18.6q-1.85,1.35 -2.42,2.65c-4.43,10.16 12.75,15.84 3,25.17q-3.58,3.43 -8.7,1.67q-6.05,-2.08 -5.46,-9.1q0.21,-2.53 1.51,-3.65q7.62,-6.54 3.48,-15.91a1.47,1.43 2.9 0 0 -0.65,-0.7z" fill="#af05c0"/>
  <path id="svg_50" d="m471.87,381c-1.42,3.74 -0.95,8.74 0.79,12.35c0.9,1.85 4.17,4.18 4.45,5.72c0.86,4.69 -0.53,9.41 -5.62,10.65c-6.9,1.68 -11.47,-1.8 -11.1,-8.99c0.16,-3.15 2.95,-6.22 4.9,-9.23c5.6,-8.66 -4.02,-11.61 -7.97,-16.71c-3.86,-4.99 -3.68,-10.58 -0.54,-16q5.16,-8.92 15.56,-6.31c5.58,1.39 8.93,5.92 10.53,11.14c2.16,7.02 -4.4,14.07 -10.33,16.68a1.26,1.26 0 0 0 -0.67,0.7z" fill="#af05c0"/>
  <rect id="svg_51" rx="5.99" height="15.18" width="15.02" transform="rotate(2.0999999046325684 399.89001464843676,376.01000976562534) " y="368.42001" x="392.380015" fill="#af05c0"/>
  <circle id="svg_52" r="8.07" cy="402.73" cx="365.47" fill="#af05c0"/>
  <circle id="svg_53" r="8.04" cy="402.76" cx="434.35" fill="#af05c0"/>
  <ellipse id="svg_54" ry="7.22" rx="8.1" transform="rotate(1.2000000476837158 449.5100097656196,463.51000976562324) " cy="463.51001" cx="449.51001" fill="#082148"/>
  <path id="svg_55" d="m183.71,480.04q1.96,-0.79 3.85,-1.59q9.47,-4.04 16.66,0.55c12.29,7.84 11.27,28.63 3.16,38.82c-6.17,7.75 -14.92,10.23 -23.05,3.24q-2.3,-1.97 -3.39,0.85q-0.35,0.9 -2.72,1.34q-3.57,0.67 -6.72,0.45a2.01,1.99 2 0 1 -1.87,-1.99l-0.11,-63.11a1.08,1.08 0 0 1 1.13,-1.09l11.9,0.46q0.56,0.02 0.56,0.58l-0.17,20.96q0,0.83 0.77,0.53zm-0.74,19q-0.19,5.68 0.41,11.31q0.06,0.51 0.44,0.86q5.12,4.69 10.9,0.76q2.86,-1.95 3.38,-5.11c0.99,-6.06 1.9,-23.85 -10.63,-18.3c-4.68,2.07 -4.32,5.31 -4.5,10.48z" fill="#082148"/>
  <path id="svg_56" d="m341.28,509.44c0,4.11 2.77,4.17 4.17,7.14q1.34,2.87 1.08,6.1q-0.04,0.47 -0.41,0.77c-4.31,3.41 -10.14,1.72 -14.14,-0.48c-3.62,-1.99 -5.13,-9.36 -5.2,-13.47q-0.42,-25.63 -0.11,-51.26q0.01,-0.72 0.73,-0.7l13,0.32q0.61,0.01 0.61,0.61q0.25,25.47 0.27,50.97z" fill="#082148"/>
  <path id="svg_57" d="m248.95,511.64c9.51,-6.58 -6.41,-11.55 -10.09,-13.24c-8.94,-4.12 -12.62,-5.09 -15.53,-13.91q-1.28,-3.9 -0.76,-5.94c1.15,-4.52 2.72,-8.55 6.42,-11.56c10.32,-8.38 23.17,-6.17 33.51,1.11a2.43,2.43 0 0 1 0.22,3.8q-3.01,2.7 -4.75,6.22a0.54,0.54 0 0 1 -0.82,0.2c-5.1,-3.94 -17.44,-8.46 -20.51,0.37q-0.16,0.49 0.04,0.97c1.77,4.21 7.11,5.81 11.24,7.34c6.37,2.36 14.67,5.97 16.82,13q3.85,12.56 -5.54,19.96c-10.93,8.6 -26.12,5.7 -36.73,-1.71a2.58,2.58 0 0 1 -0.83,-3.28c1.63,-3.25 5.68,-9.79 10.27,-6.34q2.96,2.22 3.05,2.26c3.64,1.81 10.33,3.29 13.99,0.75z" fill="#082148"/>
  <path id="svg_58" d="m633.22,485.27c3.25,-16.08 18.93,-27.47 35.3,-22.53q2.63,0.79 8.25,4.33c2.22,1.39 3.05,3.66 0.34,5.08a1.63,1.58 -3.2 0 0 -0.73,0.79q-1.3,3.07 -3.98,4.97q-0.42,0.29 -0.83,-0.02c-2.43,-1.82 -4.84,-3.64 -7.94,-3.95c-13.12,-1.33 -17.01,9.64 -16.87,20.65q0.07,5.77 1.54,9.14c2.75,6.32 9.7,10.83 16.72,8.87c2.36,-0.66 4.7,-2.51 6.95,-3.85c3.37,-2 5.07,2.45 6.42,5.02c1.45,2.75 1.13,3.92 -1.38,5.75c-10.62,7.8 -22.55,7.29 -33.52,0.3c-3.76,-2.39 -8.54,-9.97 -9.55,-14.26q-2.59,-11.08 -0.72,-20.29z" fill="#082148"/>
  <path id="svg_59" d="m61.29,510.59q0.43,-0.26 0.5,-0.59q1.59,-7.31 3.17,-17.61c1.23,-7.96 3.43,-16.19 5.06,-24.87q0.48,-2.54 2.51,-4.64a1.4,1.39 -67.3 0 1 1.02,-0.42l8.64,0.14a0.81,0.8 80.4 0 1 0.74,0.53c1.13,3.16 2.26,6.08 2.88,9.44q3.45,18.59 6.67,30.21q1.26,4.56 0.81,7.78a0.19,0.17 23.8 0 0 0.08,0.18l0.23,0.16q0.19,0.13 0.24,-0.09q0.86,-3.56 1.03,-5.56q1.67,-20.52 5.45,-40.75q0.33,-1.82 2.18,-1.86q5.2,-0.12 10.41,-0.14q0.54,0 0.55,0.54c0.1,5.53 -1.96,11.36 -2.59,15.49q-0.77,5.01 -1.55,10.01c-0.95,6.17 -2.85,13.78 -3.78,20.77c-0.51,3.9 -1.96,8.55 -2.06,13.15a1.29,1.29 0 0 1 -1.29,1.26l-15.83,-0.02q-0.63,0 -0.8,-0.61q-5.34,-19.04 -7.32,-38.56q-0.07,-0.61 -0.36,-0.77a0.67,0.67 0 0 0 -0.97,0.43q-4.49,18.68 -7.63,37.57q-0.34,2 -2.7,2.06q-6.88,0.16 -14.31,-0.2a1.23,1.23 0 0 1 -1.16,-1.02l-10.68,-58.61a1.37,1.36 85.5 0 1 1.37,-1.61l12.45,0.33q0.45,0.01 0.5,0.45q1.86,14.5 3.79,28.91c0.59,4.39 2.57,11.98 2.43,18.33q0,0.38 0.32,0.19z" fill="#082148"/>
  <path id="svg_60" d="m423.38,477.48l9.87,0.73q0.51,0.04 0.55,0.55l0.57,7.77a0.73,0.73 0 0 1 -0.69,0.79l-8.96,0.53q-2.09,0.13 -2.02,2.23q0.32,9.53 0.33,20.4c0.01,3.4 6.22,3.28 8.62,3.68q0.56,0.1 0.82,0.6l3.46,6.95a0.7,0.69 63.3 0 1 -0.3,0.93c-6.97,3.56 -18.09,4.36 -23.14,-2.75q-3.76,-5.3 -3.79,-12.13q-0.05,-9.08 0.33,-18.28a1.23,1.23 0 0 0 -1.04,-1.27l-3.64,-0.6a2.28,2.28 0 0 1 -1.9,-2.5l0.69,-6.22a0.78,0.77 81.3 0 1 0.45,-0.62q2.55,-1.11 5.33,-0.68a0.81,0.81 0 0 0 0.93,-0.75l0.62,-10.34a1.98,1.97 2.5 0 1 2.04,-1.86l10.14,0.36q0.38,0.01 0.38,0.4l-0.19,11.49q-0.01,0.55 0.54,0.59z" fill="#082148"/>
  <path id="svg_61" d="m308.77,481.41q10.53,8.17 8.49,23.18q-2.02,14.89 -16.52,19.66c-3.4,1.13 -6.15,1.55 -9.71,0.59q-20.27,-5.51 -18.29,-28.14c1.59,-18.06 21.78,-26.36 36.03,-15.29zm-11.45,31.72c6.97,-3.43 6.54,-12.28 4.92,-18.63c-0.71,-2.83 -1.42,-5.25 -4.37,-6.31c-4.51,-1.62 -9.47,0.66 -10.29,5.81c-1.07,6.75 -2.1,16.02 5.01,19.32c1.55,0.72 3.27,0.54 4.73,-0.19z" fill="#082148"/>
  <path id="svg_62" d="m528.93,478l0.26,-0.5a0.94,0.94 0 0 1 1.64,-0.05l2.34,3.89a1.59,1.58 50 0 0 2.56,0.23c6.98,-8.01 20.83,-7.15 25.07,2.9q1.26,2.98 1.18,8.75q-0.2,14.85 0.13,29.69q0.01,0.54 -0.53,0.55l-12.21,0.37a0.66,0.66 0 0 1 -0.68,-0.68q0.32,-13.06 -0.11,-26.14c-0.31,-9.5 -6.49,-11.98 -13.28,-5.44c-1.7,1.64 -1.35,3.07 -1.38,5.19q-0.19,13.01 0.46,26.01q0.03,0.5 -0.47,0.56q-6.24,0.8 -12.51,0.18q-0.45,-0.05 -0.45,-0.5l-0.23,-44.57q-0.01,-0.57 0.55,-0.68q3.7,-0.72 7.32,0.38q0.23,0.07 0.34,-0.14z" fill="#082148"/>
  <path id="svg_63" d="m158.01,519.21l0.28,0.28q0.17,0.17 -0.04,0.29c-8.83,5.1 -16.09,7.22 -26.21,3.15q-8.4,-3.37 -11.44,-10.63q-3.77,-9.02 -1.72,-17.94c2.09,-9.04 8.6,-16.1 17.85,-17.6c11.48,-1.85 21.23,4.2 22.75,16.23q0.65,5.15 0.01,11.79q-0.05,0.48 -0.53,0.47l-26.25,-0.51a0.48,0.47 -4.9 0 0 -0.48,0.56q1.68,8.55 9.51,8.8c3.25,0.11 11.17,-2.6 13.75,-0.47c1.28,1.06 1.59,3.52 2.25,5.17q0.09,0.23 0.27,0.41zm-24.67,-23.11l13.72,0.1a1.3,1.3 0 0 0 1.31,-1.29l0,-0.12a7.94,7.74 0.4 0 0 -7.89,-7.8l-0.44,0a7.94,7.74 0.4 0 0 -7.99,7.68l0,0.12a1.3,1.3 0 0 0 1.29,1.31z" fill="#082148"/>
  <path id="svg_64" d="m487.3832,525.1185a24.52,22.93 92.4 0 1 -21.8831,-25.4587a24.52,22.93 92.4 0 1 23.9367,-23.5383a24.52,22.93 92.4 0 1 21.8831,25.4587a24.52,22.93 92.4 0 1 -23.9367,23.5383zm1.1055,-11.2187a13.13,8.56 89.7 0 0 8.4912,-13.1746a13.13,8.56 89.7 0 0 -8.6286,-13.085a13.13,8.56 89.7 0 0 -8.4912,13.1746a13.13,8.56 89.7 0 0 8.6286,13.085z" fill="#082148"/>
  <path id="svg_65" d="m593.58,509.6a1.82,1.78 -7 0 0 -0.38,-0.29q-7.34,-4.35 -14.48,-7.05q-2.82,-1.06 -4.77,-5.07c-3.25,-6.69 -2.3,-13.71 4.26,-17.82c7.86,-4.92 19.06,-3.16 26.73,1.26q0.42,0.24 0.41,0.73q-0.12,6.21 -5.7,8.56q-0.48,0.2 -0.9,-0.12q-5.35,-4.07 -12,-2.39q-2.56,0.65 -1.55,2.84c2.23,4.8 11.8,6.43 16,9.53q9.93,7.34 2.93,18.14q-2.01,3.1 -4.74,4.5c-9.22,4.73 -19.62,2.55 -28.18,-2.54a1.65,1.64 26.3 0 1 -0.69,-2.02c1.6,-4.06 4.94,-8.96 9.95,-5.36c3.16,2.27 9.34,3.58 12.64,0.61q2.05,-1.86 0.47,-3.51z" fill="#082148"/>
  <path id="svg_66" d="m708.2673,525.13a24.47,22.85 90.1 0 1 -22.8073,-24.5099a24.47,22.85 90.1 0 1 22.8927,-24.4301a24.47,22.85 90.1 0 1 22.8073,24.5099a24.47,22.85 90.1 0 1 -22.8927,24.4301zm0.3659,-11.3013a13.12,8.75 89.2 0 0 8.5659,-13.2409a13.12,8.75 89.2 0 0 -8.9323,-12.9965a13.12,8.75 89.2 0 0 -8.5659,13.2409a13.12,8.75 89.2 0 0 8.9323,12.9965z" fill="#082148"/>
  <path id="svg_67" d="m382.45,518.98q0.32,-4.9 -1.96,-0.5q-0.79,1.54 -2.76,2.99q-9.01,6.67 -18.93,1.48q-0.46,-0.24 -0.71,-0.7c-1.67,-3.05 -3.87,-6.02 -4.23,-9.55q-1.78,-17.3 -0.88,-34.68q0.03,-0.6 0.63,-0.58l12.82,0.43q0.6,0.02 0.6,0.63q0.03,13.27 -0.03,26.5c-0.01,3.12 0.19,5.9 3.3,7.38c3.84,1.83 10.44,-0.25 10.45,-5.38q0.03,-14.52 -0.01,-28.51a1.05,1.05 0 0 1 1.09,-1.05l12.37,0.48q0.55,0.02 0.55,0.57q0.04,16.4 -0.02,32.76q-0.02,5.85 0.81,11.4a0.92,0.91 86.2 0 1 -0.91,1.05l-10.45,-0.1a1.59,1.58 84.8 0 1 -1.53,-1.28q-0.31,-1.61 -0.2,-3.34z" fill="#082148"/>
  <rect id="svg_68" rx="1.27" height="45.92" width="14.66" y="477.77" x="442.52" fill="#082148"/>
  <ellipse id="svg_74" ry="8.13" rx="8.59" transform="rotate(85.0999984741211 747.4600219726562,516.469970703125) " cy="516.469971" cx="747.460022" fill="#082148"/>
 </g>
</svg>